<svg width="36" height="36" viewBox="0 0 36 36" fill="none" xmlns="http://www.w3.org/2000/svg">
<circle cx="18" cy="18" r="18" fill="#111111"/>
<path d="M17.2588 21.8116H19.1647V19.9058H17.2588V21.8116ZM17.2588 18.9528H19.1647V14.1881H17.2588V18.9528ZM10.5883 9.4234V26.5763H11.5412V27.5293H24.8824V26.5763H25.8353V21.8116H26.7883V20.8587H27.7412V19.9058H28.6941V18.9528H29.6471V17.0469H28.6941V16.094H27.7412V15.141H26.7883V14.1881H25.8353V9.4234H24.8824V8.47046H11.5412V9.4234H10.5883ZM12.4941 10.3763H23.9294V15.141H24.8824V16.094H25.8353V17.0469H26.7883V18.9528H25.8353V19.9058H24.8824V20.8587H23.9294V25.6234H12.4941V10.3763Z" fill="white"/>
</svg>
