<svg width="24" height="9" viewBox="0 0 24 9" fill="none" xmlns="http://www.w3.org/2000/svg">
<path fill-rule="evenodd" clip-rule="evenodd" d="M21.1113 8.71585H22.9825V3.11816H21.1113V8.71585Z" fill="#4E7EFF"/>
<path fill-rule="evenodd" clip-rule="evenodd" d="M23.249 1.22818C23.249 0.555044 22.7111 0 22.0444 0C21.3778 0 20.8398 0.543235 20.8398 1.22818C20.8398 1.91313 21.3778 2.45637 22.0444 2.45637C22.7111 2.44456 23.249 1.90132 23.249 1.22818Z" fill="#4E7EFF"/>
<path fill-rule="evenodd" clip-rule="evenodd" d="M17.1225 6.96806C16.4091 6.96806 15.8243 6.37759 15.8243 5.6454C15.8243 4.91321 16.4091 4.32274 17.1225 4.32274C17.8359 4.32274 18.4207 4.91321 18.4207 5.6454C18.4207 6.37759 17.8359 6.96806 17.1225 6.96806ZM20.2919 5.65721V0.319336H18.4207V2.81113C18.0698 2.57494 17.5903 2.44504 17.1225 2.44504C15.3682 2.44504 13.9531 3.88579 13.9531 5.6454C13.9531 7.41682 15.3682 8.84577 17.1225 8.84577C18.8183 8.85757 20.2919 7.53491 20.2919 5.65721Z" fill="#4E7EFF"/>
<path fill-rule="evenodd" clip-rule="evenodd" d="M10.1616 6.96806C9.44816 6.96806 8.8634 6.37759 8.8634 5.6454C8.8634 4.91321 9.44816 4.32274 10.1616 4.32274C10.875 4.32274 11.4597 4.91321 11.4597 5.6454C11.4597 6.37759 10.8867 6.96806 10.1616 6.96806ZM13.3309 5.65721V0.319336H11.4597V2.81113C11.1089 2.57494 10.6294 2.44504 10.1616 2.44504C8.4073 2.44504 6.99219 3.88579 6.99219 5.6454C6.99219 7.41682 8.41899 8.85757 10.1616 8.85757C11.8574 8.85757 13.3309 7.53491 13.3309 5.65721Z" fill="#4E7EFF"/>
<path fill-rule="evenodd" clip-rule="evenodd" d="M3.16937 4.07417C2.57292 4.07417 2.07003 4.45208 1.87122 4.9835V3.21208C1.87122 2.4799 2.45597 1.88942 3.16937 1.88942C3.88277 1.88942 4.46753 2.4799 4.46753 3.21208V4.9835C4.26871 4.45208 3.76582 4.07417 3.16937 4.07417ZM4.46753 5.99911V8.69167H6.33875V3.34199C6.33875 3.29475 6.33875 3.25932 6.33875 3.21208C6.33875 1.44066 4.92364 0.0117188 3.16937 0.0117188C1.41511 0.0117188 0 1.44066 0 3.21208V8.67986H1.87122V5.97549C2.07003 6.51873 2.57292 6.89663 3.16937 6.89663C3.75413 6.89663 4.25702 6.53054 4.45583 6.01092L4.46753 5.99911Z" fill="#4E7EFF"/>
</svg>
