<svg width="50" height="50" viewBox="0 0 50 50" fill="none" xmlns="http://www.w3.org/2000/svg">
<circle cx="25" cy="25" r="25" fill="#4E7EFF"/>
<g clip-path="url(#clip0_865_663)">
<path fill-rule="evenodd" clip-rule="evenodd" d="M24.3529 23.9142C22.6214 23.9142 21.1615 25.0112 20.5844 26.5539V21.4116C20.5844 19.2861 22.2819 17.572 24.3529 17.572C26.4238 17.572 28.1213 19.2861 28.1213 21.4116V26.5539C27.5442 25.0112 26.0843 23.9142 24.3529 23.9142ZM28.1213 29.5022V37.3185H33.5534V21.7887C33.5534 21.6515 33.5534 21.5487 33.5534 21.4116C33.5534 16.2692 29.4454 12.1211 24.3529 12.1211C19.2603 12.1211 15.1523 16.2692 15.1523 21.4116V37.2842H20.5844V29.4336C21.1615 31.0106 22.6214 32.1076 24.3529 32.1076C26.0504 32.1076 27.5102 31.0449 28.0874 29.5365L28.1213 29.5022Z" fill="white"/>
</g>
<defs>
<clipPath id="clip0_865_663">
<rect width="22.7273" height="25.7576" fill="white" transform="translate(13.6367 12.1211)"/>
</clipPath>
</defs>
</svg>
