<?xml version="1.0" encoding="utf-8"?>
<!-- Generator: Adobe Illustrator 28.0.0, SVG Export Plug-In . SVG Version: 6.00 Build 0)  -->
<svg version="1.1" id="Capa_1" xmlns="http://www.w3.org/2000/svg" xmlns:xlink="http://www.w3.org/1999/xlink" x="0px" y="0px"
	 viewBox="0 0 1408 226" style="enable-background:new 0 0 1408 226;" xml:space="preserve">
<style type="text/css">
	.st0{fill:#FFFFFF;}
</style>
<path class="st0" d="M88.4,225.1c-9.4,0-17.3-1.6-23.7-4.8c-6.3-3.3-11.3-7.2-15.2-11.6c-3.8-4.6-6.7-8.9-8.6-13h-2.4v26.4H0V0h39.2
	v83h1.6c2-4,4.8-8.2,8.5-12.8c3.7-4.7,8.6-8.6,14.9-11.9c6.4-3.3,14.5-4.9,24.3-4.9c12.8,0,24.4,3.3,34.7,9.8
	c10.3,6.6,18.5,16.2,24.6,28.9c6.2,12.7,9.2,28.4,9.2,47c0,18.3-3,33.8-8.9,46.7c-6,12.8-14.2,22.6-24.6,29.4
	C113.3,221.8,101.5,225.1,88.4,225.1z M77.7,192.9c8.6,0,15.9-2.3,21.6-7c5.9-4.7,10.3-11.1,13.3-19.2c3-8.1,4.5-17.4,4.5-27.7
	c0-10.3-1.5-19.5-4.5-27.6c-3-8.1-7.4-14.4-13.1-18.9c-5.8-4.6-13-6.9-21.8-6.9c-8.4,0-15.6,2.2-21.5,6.6
	c-5.8,4.4-10.2,10.6-13.3,18.6c-3,8-4.5,17.3-4.5,28.2c0,10.7,1.5,20.2,4.5,28.3c3.1,8.1,7.6,14.4,13.4,18.9
	C62.2,190.7,69.3,192.9,77.7,192.9z"/>
<path class="st0" d="M178.9,222.1V55.5h38v28h1.8c3-9.7,8.2-17.2,15.7-22.4c7.5-5.3,16-7.9,25.5-7.9c2.1,0,4.5,0.1,7.2,0.3
	c2.8,0.2,5.1,0.4,6.9,0.7v36.1c-1.7-0.6-4.3-1.1-7.9-1.5c-3.6-0.4-7-0.6-10.3-0.6c-7.3,0-13.7,1.5-19.4,4.6
	c-5.7,3.1-10.1,7.3-13.4,12.7c-3.2,5.4-4.8,11.6-4.8,18.8v97.8H178.9z"/>
<path class="st0" d="M394.8,152.2V55.5H434v166.7h-38v-29.7h-1.8c-3.8,9.3-9.9,17-18.5,23c-8.5,6-19.1,8.9-31.6,8.8
	c-10.9,0-20.6-2.4-28.9-7.2c-8.2-4.9-14.8-12-19.5-21.3c-4.7-9.4-7-20.8-7-34.1V55.5h39.2v100.2c0,10.4,2.9,18.8,8.6,25
	c5.9,6.3,13.5,9.3,23,9.2c5.8,0,11.3-1.4,16.7-4.2c5.5-2.8,9.9-7,13.4-12.5C393,167.7,394.8,160.7,394.8,152.2z"/>
<path class="st0" d="M463.1,222.1V55.5h37.4v28.5h2.1c3.5-9.5,9.2-17,17.3-22.4c8.1-5.5,17.6-8.2,28.6-8.2c11.3,0,20.9,2.7,28.6,8.2
	c7.8,5.5,13.2,12.9,16.3,22.4h1.8c3.8-9.2,10-16.6,18.8-22.2c8.7-5.6,19.2-8.3,31.3-8.3c15.3,0,27.8,4.9,37.4,14.6
	c9.7,9.6,14.6,23.8,14.6,42.3v111.8h-39.4V116.3c0-10.2-2.8-17.7-8.3-22.5c-5.5-4.9-12.2-7.3-20.1-7.3c-9.4,0-16.8,3-22.1,8.9
	c-5.3,5.9-7.9,13.4-7.9,22.7v104.1h-38.8V114.8c0-8.6-2.5-15.5-7.6-20.6c-5.1-5.2-11.8-7.8-20.1-7.8c-5.7,0-10.8,1.4-15.5,4.3
	c-4.7,2.9-8.4,6.9-11.2,12.1c-2.7,5.2-4,11.1-4,17.9v101.4H463.1z"/>
<path class="st0" d="M774.3,225.6c-10.6,0-20.2-1.9-28.6-5.7c-8.4-3.9-15.1-9.5-20-17c-4.9-7.5-7.3-16.6-7.3-27.6
	c0-9.3,1.7-17.1,5.2-23.3c3.5-6.2,8.2-11.1,14.2-14.8c6.1-3.7,12.9-6.5,20.4-8.3c7.6-2,15.4-3.4,23.4-4.2c9.8-1.1,17.8-2,23.9-2.8
	c6.1-0.8,10.4-2.1,13.1-3.9c2.8-1.8,4.2-4.6,4.2-8.3V109c0-8.1-2.4-14.3-7.2-18.8c-4.8-4.5-11.7-6.7-20.9-6.7
	c-9.6,0-17.3,2.1-23,6.3c-5.6,4.2-9.3,9.1-11.3,14.8l-36.5-5.2c2.9-10.1,7.7-18.6,14.3-25.3c6.7-6.9,14.8-12,24.3-15.4
	c9.6-3.5,20.3-5.2,31.9-5.2c8,0,15.9,0.9,23.9,2.8c8,1.8,15.3,4.9,21.9,9.2c6.7,4.4,12,10.2,16,17.6c4,7.4,6,16.5,6,27.6v111.5
	h-37.7v-23h-1.2c-2.4,4.6-5.8,8.9-10.1,13c-4.3,4-9.6,7.2-16.1,9.7C790.6,224.3,783.1,225.6,774.3,225.6z M784.3,196.6
	c8,0,14.8-1.5,20.6-4.6c5.8-3.2,10.2-7.4,13.4-12.5c3.2-5.3,4.8-11,4.8-17.1v-19.5c-1.3,1-3.4,1.9-6.3,2.8c-2.9,0.8-6.2,1.5-9.8,2.2
	s-7.3,1.3-10.9,1.8c-3.5,0.5-6.5,0.9-9.1,1.2c-5.9,0.8-11.1,2.1-15.8,4c-4.6,1.8-8.2,4.3-10.9,7.5c-2.7,3.2-4,7.3-4,12.4
	c0,7.3,2.6,12.7,7.9,16.4C769.5,194.8,776.2,196.6,784.3,196.6z"/>
<path class="st0" d="M916.7,0v222.1h-19.2V0H916.7z"/>
<path class="st0" d="M1004.8,225.9c-10,0-19.2-1.9-27.6-5.8c-8.3-4-15-9.7-20-17.1c-4.9-7.6-7.3-16.7-7.3-27.4
	c0-8.2,1.5-15.2,4.6-20.7c3.1-5.6,7.5-10.1,13.3-13.7c5.8-3.7,12.5-6.6,20.3-8.6c7.9-2.2,16.5-3.8,25.9-4.9c9.3-1.2,17.3-2.2,23.7-3
	c6.5-0.9,11.4-2.3,14.8-4.2c3.4-1.9,5.1-4.9,5.1-9.1v-3.9c0-11.4-3.4-20.4-10.1-26.8c-6.8-6.6-16.4-9.8-29.1-9.8
	c-12,0-21.8,2.6-29.4,7.9c-7.6,5.3-12.8,11.5-15.8,18.6l-18.5-6.7c3.8-9,9-16.3,15.7-21.8s14.1-9.4,22.4-11.8
	c8.3-2.5,16.6-3.7,25-3.7c6.4,0,13,0.8,19.8,2.5c6.9,1.7,13.3,4.6,19.2,8.6c6,4.1,10.8,9.8,14.5,17.1c3.8,7.3,5.7,16.4,5.7,27.6v113
	h-19.4v-26.4h-1.2c-2.2,4.9-5.6,9.6-10.1,14.3c-4.6,4.6-10.3,8.3-17.2,11.3C1022.3,224.4,1014.2,225.9,1004.8,225.9z M1007.5,208.3
	c10.2,0,19.1-2.2,26.5-6.7c7.6-4.6,13.4-10.7,17.4-18.3c4.1-7.7,6.1-16,6.1-25v-24c-1.5,1.4-3.9,2.6-7.3,3.7
	c-3.3,1.1-7.1,2-11.5,2.8c-4.3,0.8-8.6,1.5-13.1,2.1c-4.4,0.6-8.2,1.1-11.6,1.5c-9.3,1.2-17.4,3-24.1,5.5
	c-6.7,2.5-11.8,5.9-15.4,10.1c-3.5,4.3-5.2,9.8-5.2,16.5c0,10,3.6,17.8,10.7,23.4C987.3,205.5,996.5,208.3,1007.5,208.3z"/>
<path class="st0" d="M1190.6,225.7c-10,0-18.5-1.8-25.3-5.4c-6.8-3.7-12.2-8.2-16.4-13.6c-4.1-5.4-7.3-10.6-9.5-15.7h-2.2v31h-18.6
	V0h19.2v87.4h1.6c2.3-5,5.5-10.1,9.5-15.4c4.1-5.3,9.5-9.7,16.2-13.3c6.8-3.7,15.2-5.5,25.3-5.5c13.7,0,25.7,3.6,35.9,10.9
	c10.3,7.2,18.4,17.2,24.2,30.1c5.8,12.9,8.7,27.9,8.7,45c0,17.2-2.9,32.3-8.7,45.3c-5.7,13-13.7,23.2-24,30.4
	C1216.3,222.1,1204.3,225.7,1190.6,225.7z M1188.5,208.1c10.9,0,20.2-3.1,27.9-9.2c7.7-6.2,13.5-14.5,17.4-24.9
	c4-10.4,6-22.1,6-34.9s-2-24.3-6-34.6c-4-10.3-9.7-18.5-17.3-24.6c-7.6-6.1-16.9-9.1-28-9.1c-10.9,0-20.2,2.9-27.7,8.8
	c-7.6,5.8-13.3,13.8-17.3,24c-4,10.2-6,22.1-6,35.5c0,13.3,2,25.2,6,35.6c4,10.3,9.7,18.5,17.3,24.4
	C1168.4,205.1,1177.7,208.1,1188.5,208.1z"/>
<path class="st0" d="M1314.3,224.7c-6.8,0-12.5-2.3-17.1-6.9c-4.6-4.7-6.9-10.3-6.9-17c0-6.7,2.3-12.3,6.9-16.8
	c4.7-4.7,10.4-7,17.1-7c6.8,0,12.4,2.3,17,7c4.7,4.6,7,10.2,7,16.8c0,6.7-2.3,12.3-7,17C1326.7,222.4,1321.1,224.7,1314.3,224.7z"/>
<path class="st0" d="M1370.9,0h7.7l10.4,25.3h0.4L1399.8,0h7.7v34.9h-6.1v-24h-0.3l-9.6,23.9h-4.5l-9.6-23.9h-0.3v24h-6.1V0z"/>
<path class="st0" d="M1337.7,5.3V0h27.8v5.3h-10.8v29.6h-6.3V5.3H1337.7z"/>
</svg>
