<svg width="33" height="33" viewBox="0 0 33 33" fill="none" xmlns="http://www.w3.org/2000/svg">
<path d="M11.6577 15.3653C11.7003 15.0746 11.7817 14.8213 11.9017 14.6053C12.0243 14.3893 12.175 14.2093 12.3537 14.0653C12.535 13.9213 12.7417 13.8146 12.9737 13.7453C13.2057 13.6733 13.455 13.6373 13.7217 13.6373C14.0097 13.6373 14.2657 13.6786 14.4897 13.7613C14.7137 13.8413 14.903 13.9506 15.0577 14.0893C15.2123 14.228 15.3297 14.3893 15.4097 14.5733C15.4897 14.7546 15.5297 14.9466 15.5297 15.1493C15.5297 15.3333 15.511 15.496 15.4737 15.6373C15.4363 15.776 15.3803 15.8973 15.3057 16.0013C15.2337 16.1026 15.143 16.1893 15.0337 16.2613C14.927 16.3306 14.8043 16.3893 14.6657 16.4373C15.311 16.664 15.6337 17.104 15.6337 17.7573C15.6337 18.0666 15.5777 18.336 15.4657 18.5653C15.3537 18.7946 15.203 18.9853 15.0137 19.1373C14.827 19.2893 14.6097 19.404 14.3617 19.4813C14.1137 19.556 13.855 19.5933 13.5857 19.5933C13.3083 19.5933 13.0617 19.564 12.8457 19.5053C12.6297 19.444 12.4377 19.3506 12.2697 19.2253C12.1017 19.0973 11.9537 18.9346 11.8257 18.7373C11.7003 18.54 11.591 18.3053 11.4977 18.0333L12.0497 17.8093C12.1937 17.7533 12.327 17.7386 12.4497 17.7653C12.5723 17.792 12.6603 17.8533 12.7137 17.9493C12.8337 18.1706 12.9603 18.332 13.0937 18.4333C13.2297 18.532 13.3883 18.5813 13.5697 18.5813C13.7083 18.5813 13.8283 18.5586 13.9297 18.5133C14.0337 18.4653 14.119 18.4053 14.1857 18.3333C14.255 18.2586 14.307 18.1746 14.3417 18.0813C14.3763 17.988 14.3937 17.8933 14.3937 17.7973C14.3937 17.672 14.3843 17.56 14.3657 17.4613C14.3497 17.36 14.3017 17.2733 14.2217 17.2013C14.1417 17.1293 14.0203 17.0746 13.8577 17.0373C13.6977 16.9973 13.4737 16.9773 13.1857 16.9773V16.1213C13.4283 16.1213 13.6243 16.1026 13.7737 16.0653C13.923 16.028 14.0377 15.9773 14.1177 15.9133C14.2003 15.8466 14.255 15.7666 14.2817 15.6733C14.3083 15.58 14.3217 15.4773 14.3217 15.3653C14.3217 15.136 14.2657 14.96 14.1537 14.8373C14.0443 14.712 13.8763 14.6493 13.6497 14.6493C13.4657 14.6493 13.3097 14.6986 13.1817 14.7973C13.0563 14.8933 12.9697 15.0133 12.9217 15.1573C12.8657 15.304 12.7923 15.4013 12.7017 15.4493C12.611 15.4973 12.4817 15.508 12.3137 15.4813L11.6577 15.3653ZM21.7983 16.6133C21.7983 17.0346 21.725 17.424 21.5783 17.7813C21.4343 18.136 21.2303 18.444 20.9663 18.7053C20.7023 18.964 20.3836 19.1666 20.0103 19.3133C19.6396 19.4573 19.2276 19.5293 18.7743 19.5293H16.5103V13.7013H18.7743C19.2276 13.7013 19.6396 13.7746 20.0103 13.9213C20.3836 14.068 20.7023 14.2706 20.9663 14.5293C21.2303 14.788 21.4343 15.096 21.5783 15.4533C21.725 15.808 21.7983 16.1946 21.7983 16.6133ZM20.4143 16.6133C20.4143 16.3253 20.377 16.0653 20.3023 15.8333C20.2276 15.6013 20.1196 15.4053 19.9783 15.2453C19.8396 15.0826 19.669 14.9586 19.4663 14.8733C19.2636 14.7853 19.033 14.7413 18.7743 14.7413H17.8703V18.4893H18.7743C19.033 18.4893 19.2636 18.4466 19.4663 18.3613C19.669 18.2733 19.8396 18.1493 19.9783 17.9893C20.1196 17.8266 20.2276 17.6293 20.3023 17.3973C20.377 17.1653 20.4143 16.904 20.4143 16.6133Z" fill="#0072CE"/>
<path d="M22.2602 10.5294C21.1629 6.17871 18.9082 3.19604 16.3056 3.19604C12.6242 3.19604 9.63892 9.16538 9.63892 16.5294C9.63892 23.8934 12.6242 29.8627 16.3056 29.8627C16.7616 29.8627 17.2082 29.7707 17.6389 29.596M22.8057 19.0293L27.3057 20.5293L24.8257 25.6146" stroke="#0072CE" stroke-width="2" stroke-linecap="round" stroke-linejoin="round"/>
<path d="M26.8057 21.0293C24.4003 22.2093 19.9403 23.1961 16.3056 23.1961C8.94162 23.1961 2.97229 20.2108 2.97229 16.5295C2.97229 12.8481 8.94162 9.86279 16.3056 9.86279C22.7563 9.86279 28.1363 12.1535 29.3723 15.1961" stroke="#0072CE" stroke-width="2" stroke-linecap="round" stroke-linejoin="round"/>
</svg>
