<svg width="532" height="536" viewBox="0 0 532 536" fill="none" xmlns="http://www.w3.org/2000/svg">
<circle cx="258.013" cy="277.672" r="243.27" fill="#D9D9D9"/>
<mask id="path-2-inside-1_217_239" fill="white">
<path d="M453.496 77.8608C428.801 52.9298 399.364 33.1969 366.921 19.8261C334.479 6.45519 299.687 -0.282935 264.599 0.00910212C218.117 0.252368 172.513 12.6879 132.34 36.0738C92.1678 59.4596 58.8336 92.9772 35.6669 133.279C12.5001 173.581 0.311727 219.256 0.319006 265.743C0.326286 312.23 12.529 357.901 35.7083 398.195L0 535.686L140.691 499.974C179.586 521.141 223.175 532.193 267.455 532.115H264.599C317.373 532.459 369.053 517.075 413.05 487.927C457.047 458.778 491.367 417.185 511.632 368.451C531.898 319.717 537.191 266.051 526.837 214.297C516.482 162.542 490.95 115.045 453.496 77.8608ZM264.599 486.404C224.982 486.435 186.102 475.696 152.117 455.334L144.262 450.692L60.7042 472.476L82.8433 391.053L77.8442 382.839C49.3259 336.908 38.6583 282.105 47.8652 228.829C57.0721 175.553 85.5131 127.51 127.792 93.8163C170.071 60.1222 223.245 43.1211 277.227 46.0387C331.209 48.9563 382.243 71.5896 420.644 109.644C441.231 130.068 457.549 154.384 468.645 181.178C479.741 207.971 485.395 236.705 485.276 265.705C485.182 324.209 461.902 380.29 420.537 421.658C379.172 463.027 323.097 486.309 264.599 486.404Z"/>
</mask>
<path d="M453.496 77.8608L417.973 113.048L418.12 113.196L418.269 113.344L453.496 77.8608ZM264.599 0.00910212L264.86 50.0084L264.938 50.008L265.015 50.0074L264.599 0.00910212ZM35.7083 398.195L84.1028 410.764L89.2408 390.981L79.049 373.264L35.7083 398.195ZM0 535.686L-48.3945 523.117L-69.6478 604.95L12.3015 584.149L0 535.686ZM140.691 499.974L164.591 456.056L147.381 446.69L128.389 451.511L140.691 499.974ZM267.455 532.115L267.543 582.115L267.455 482.115V532.115ZM264.599 532.115V482.115L264.273 582.114L264.599 532.115ZM264.599 486.404L264.638 536.404L264.659 536.404L264.679 536.404L264.599 486.404ZM152.117 455.334L177.815 412.443L177.686 412.366L177.556 412.289L152.117 455.334ZM144.262 450.692L169.7 407.647L151.785 397.059L131.648 402.309L144.262 450.692ZM60.7042 472.476L12.4559 459.357L-10.186 542.629L73.318 520.859L60.7042 472.476ZM82.8433 391.053L131.092 404.172L136.733 383.424L125.554 365.058L82.8433 391.053ZM77.8442 382.839L120.555 356.844L120.44 356.654L120.322 356.465L77.8442 382.839ZM420.644 109.644L455.858 74.1479L455.848 74.1384L455.839 74.1289L420.644 109.644ZM485.276 265.705L435.277 265.5L435.276 265.562L435.276 265.624L485.276 265.705ZM489.019 42.674C459.626 13.0002 424.589 -10.4869 385.974 -26.4018L347.869 66.0539C374.139 76.8808 397.976 92.8594 417.973 113.048L489.019 42.674ZM385.974 -26.4018C347.358 -42.3166 305.947 -50.3368 264.183 -49.9892L265.015 50.0074C293.427 49.7709 321.599 55.227 347.869 66.0539L385.974 -26.4018ZM264.337 -49.9902C209.106 -49.7012 154.918 -34.9249 107.185 -7.13764L157.495 79.2852C190.107 60.3008 227.128 50.2059 264.86 50.0084L264.337 -49.9902ZM107.185 -7.13764C59.452 20.6496 19.8446 60.4751 -7.6816 108.361L79.0153 158.197C97.8225 125.479 124.884 98.2696 157.495 79.2852L107.185 -7.13764ZM-7.6816 108.361C-35.2078 156.247 -49.6896 210.517 -49.681 265.751L50.319 265.735C50.3131 227.995 60.2081 190.915 79.0153 158.197L-7.6816 108.361ZM-49.681 265.751C-49.6723 320.985 -35.1735 375.25 -7.63231 423.127L79.049 373.264C60.2315 340.552 50.3249 303.475 50.319 265.735L-49.681 265.751ZM-12.6861 385.627L-48.3945 523.117L48.3945 548.255L84.1028 410.764L-12.6861 385.627ZM12.3015 584.149L152.992 548.437L128.389 451.511L-12.3015 487.223L12.3015 584.149ZM116.791 543.892C163.045 569.064 214.884 582.207 267.543 582.115L267.367 482.115C231.467 482.178 196.126 473.218 164.591 456.056L116.791 543.892ZM267.455 482.115H264.599V582.115H267.455V482.115ZM264.273 582.114C326.98 582.522 388.388 564.244 440.665 529.609L385.435 446.245C349.719 469.907 307.765 482.395 264.925 482.116L264.273 582.114ZM440.665 529.609C492.943 494.974 533.721 445.553 557.8 387.649L465.465 349.253C449.013 388.816 421.152 422.582 385.435 446.245L440.665 529.609ZM557.8 387.649C581.878 329.745 588.168 265.981 575.865 204.488L477.808 224.106C486.214 266.122 481.917 309.689 465.465 349.253L557.8 387.649ZM575.865 204.488C563.563 142.995 533.226 86.5593 488.723 42.3776L418.269 113.344C448.675 143.53 469.402 182.09 477.808 224.106L575.865 204.488ZM264.559 436.404C234.008 436.428 204.024 428.146 177.815 412.443L126.42 498.225C168.181 523.246 215.957 536.442 264.638 536.404L264.559 436.404ZM177.556 412.289L169.7 407.647L118.823 493.737L126.679 498.38L177.556 412.289ZM131.648 402.309L48.0904 424.093L73.318 520.859L156.875 499.075L131.648 402.309ZM108.952 485.595L131.092 404.172L34.5951 377.934L12.4559 459.357L108.952 485.595ZM125.554 365.058L120.555 356.844L35.1332 408.835L40.1324 417.049L125.554 365.058ZM120.322 356.465C98.2648 320.939 90.0136 278.551 97.1349 237.344L-1.40451 220.315C-12.6971 285.659 0.387023 352.877 35.366 409.214L120.322 356.465ZM97.1349 237.344C104.256 196.136 126.254 158.978 158.954 132.918L96.6298 54.7148C44.7719 96.043 9.88806 154.97 -1.40451 220.315L97.1349 237.344ZM158.954 132.918C191.653 106.858 232.779 93.7093 274.529 95.9658L279.926 -3.88847C213.711 -7.46721 148.488 13.3865 96.6298 54.7148L158.954 132.918ZM274.529 95.9658C316.279 98.2223 355.749 115.727 385.45 145.16L455.839 74.1289C408.737 27.4523 346.14 -0.309739 279.926 -3.88847L274.529 95.9658ZM385.43 145.141C401.308 160.891 413.892 179.645 422.45 200.309L514.84 162.046C501.205 129.124 481.155 99.2437 455.858 74.1479L385.43 145.141ZM422.45 200.309C431.008 220.973 435.368 243.134 435.277 265.5L535.276 265.909C535.422 230.275 528.475 194.968 514.84 162.046L422.45 200.309ZM435.276 265.624C435.203 310.897 417.188 354.293 385.18 386.304L455.894 457.012C506.615 406.286 535.16 337.521 535.276 265.786L435.276 265.624ZM385.18 386.304C353.172 418.316 309.782 436.331 264.518 436.404L264.679 536.404C336.412 536.288 405.173 507.738 455.894 457.012L385.18 386.304Z" fill="#878D8F" mask="url(#path-2-inside-1_217_239)"/>
<path d="M373.937 314.021C367.967 311.189 339.377 297.034 334.036 294.832C328.695 292.63 324.925 292.001 320.841 297.978C316.757 303.954 305.761 316.852 302.305 320.941C298.849 325.03 295.707 325.345 289.738 320.941C272.592 314.052 256.758 304.263 242.926 292.001C230.404 280.197 219.804 266.505 211.508 251.422C208.052 245.76 211.508 242.614 214.022 239.468C216.535 236.323 219.677 232.862 222.818 229.402C225.116 226.41 227.017 223.132 228.474 219.651C229.253 218.032 229.658 216.258 229.658 214.46C229.658 212.663 229.253 210.889 228.474 209.27C228.474 206.439 215.278 177.813 210.251 166.174C205.225 154.535 200.826 156.108 197.37 156.108H184.803C178.817 156.342 173.167 158.944 169.094 163.343C162.521 169.624 157.313 177.197 153.799 185.587C150.285 193.978 148.54 203.004 148.673 212.101C150.28 234.435 158.482 255.786 172.236 273.441C197.476 310.983 232.007 341.33 272.458 361.52C286.282 367.497 296.964 370.957 305.447 373.788C317.358 377.393 329.949 378.147 342.205 375.99C350.345 374.337 358.059 371.026 364.869 366.265C371.678 361.503 377.438 355.391 381.791 348.308C385.414 339.561 386.608 329.997 385.247 320.626C383.676 318.424 379.906 316.852 373.937 314.021Z" fill="#E13029"/>
<path d="M432.208 100.519C410.479 78.5619 384.577 61.1825 356.031 49.4063C327.484 37.6301 296.871 31.6956 265.996 31.9528C225.097 32.1671 184.969 43.1195 149.621 63.7162C114.273 84.3129 84.9419 113.833 64.5574 149.328C44.1728 184.823 33.4481 225.051 33.4545 265.993C33.4609 306.936 44.1982 347.16 64.5939 382.649L33.1738 503.742L156.969 472.289C191.193 490.931 229.547 500.665 268.51 500.596H265.996C312.433 500.899 357.907 487.351 396.62 461.678C435.333 436.006 465.531 399.374 483.363 356.452C501.195 313.531 505.852 266.265 496.741 220.683C487.631 175.101 465.165 133.269 432.208 100.519ZM265.996 460.337C231.137 460.365 196.927 450.906 167.023 432.973L160.111 428.884L86.5879 448.07L106.068 376.359L101.67 369.125C76.5761 328.671 67.1895 280.405 75.2908 233.483C83.392 186.561 108.417 144.248 145.619 114.572C182.82 84.8965 229.609 69.923 277.108 72.4926C324.607 75.0623 369.512 94.9962 403.302 128.512C421.417 146.5 435.774 167.916 445.538 191.514C455.302 215.112 460.276 240.419 460.172 265.96C460.089 317.486 439.605 366.879 403.208 403.313C366.81 439.748 317.469 460.254 265.996 460.337Z" fill="#E13029"/>
</svg>
