<svg width="70" height="32" viewBox="0 0 70 32" fill="none" xmlns="http://www.w3.org/2000/svg">
<rect width="70" height="31.8182" rx="5" fill="#111111"/>
<g clip-path="url(#clip0_592_3328)">
<path fill-rule="evenodd" clip-rule="evenodd" d="M53.1719 24.1223H56.757V13.3975H53.1719V24.1223Z" fill="white"/>
<path fill-rule="evenodd" clip-rule="evenodd" d="M57.2721 9.77696C57.2721 8.48726 56.2414 7.42383 54.9642 7.42383C53.687 7.42383 52.6562 8.46464 52.6562 9.77696C52.6562 11.0893 53.687 12.1301 54.9642 12.1301C56.2414 12.1075 57.2721 11.0667 57.2721 9.77696Z" fill="white"/>
<path fill-rule="evenodd" clip-rule="evenodd" d="M45.5294 20.7737C44.1625 20.7737 43.0422 19.6424 43.0422 18.2396C43.0422 16.8368 44.1625 15.7055 45.5294 15.7055C46.8962 15.7055 48.0166 16.8368 48.0166 18.2396C48.0166 19.6424 46.8962 20.7737 45.5294 20.7737ZM51.6017 18.2622V8.03516H48.0166V12.8093C47.3444 12.3568 46.4257 12.1079 45.5294 12.1079C42.1683 12.1079 39.457 14.8683 39.457 18.2396C39.457 21.6335 42.1683 24.3713 45.5294 24.3713C48.7784 24.3939 51.6017 21.8598 51.6017 18.2622Z" fill="white"/>
<path fill-rule="evenodd" clip-rule="evenodd" d="M32.1973 20.7737C30.8305 20.7737 29.7101 19.6424 29.7101 18.2396C29.7101 16.8368 30.8305 15.7055 32.1973 15.7055C33.5642 15.7055 34.6845 16.8368 34.6845 18.2396C34.6845 19.6424 33.5866 20.7737 32.1973 20.7737ZM38.2697 18.2622V8.03516H34.6845V12.8093C34.0123 12.3568 33.0936 12.1079 32.1973 12.1079C28.8363 12.1079 26.125 14.8683 26.125 18.2396C26.125 21.6335 28.8587 24.3939 32.1973 24.3939C35.4464 24.3939 38.2697 21.8598 38.2697 18.2622Z" fill="white"/>
<path fill-rule="evenodd" clip-rule="evenodd" d="M18.7989 15.2297C17.6561 15.2297 16.6926 15.9538 16.3117 16.9719V13.578C16.3117 12.1752 17.4321 11.0439 18.7989 11.0439C20.1657 11.0439 21.2861 12.1752 21.2861 13.578V16.9719C20.9052 15.9538 19.9417 15.2297 18.7989 15.2297ZM21.2861 18.9178V24.0766H24.8712V13.8269C24.8712 13.7364 24.8712 13.6685 24.8712 13.578C24.8712 10.1841 22.16 7.44629 18.7989 7.44629C15.4378 7.44629 12.7266 10.1841 12.7266 13.578V24.054H16.3117V18.8726C16.6926 19.9134 17.6561 20.6374 18.7989 20.6374C19.9193 20.6374 20.8828 19.936 21.2637 18.9404L21.2861 18.9178Z" fill="white"/>
</g>
<defs>
<clipPath id="clip0_592_3328">
<rect width="44.5455" height="16.9697" fill="white" transform="translate(12.7266 7.42383)"/>
</clipPath>
</defs>
</svg>
