<svg width="56" height="40" viewBox="0 0 56 40" fill="none" xmlns="http://www.w3.org/2000/svg">
<path fill-rule="evenodd" clip-rule="evenodd" d="M2.00001 22C0.894006 22 5.84984e-06 21.106 5.80149e-06 20C5.75324e-06 18.896 0.894006 18 2.00001 18L16 18L16 22L2.00001 22ZM56 4L56 36C56 38.208 54.208 40 52 40L20 40C17.792 40 16 38.208 16 36L16 22L45.172 22L34.686 32.486C33.906 33.266 33.906 34.534 34.686 35.314C35.466 36.096 36.734 36.096 37.516 35.314L51.314 21.516C51.73 21.098 51.908 20.544 51.88 20C51.908 19.456 51.73 18.902 51.314 18.486L37.516 4.68597C36.734 3.90597 35.466 3.90598 34.686 4.68598C33.906 5.46598 33.906 6.73399 34.686 7.51599L45.172 18L16 18L16 4C16 1.792 17.792 1.67012e-06 20 1.57361e-06L52 1.74846e-07C54.208 7.83308e-08 56 1.792 56 4Z" fill="#111111"/>
</svg>
